<svg width="81" height="81" viewBox="0 0 81 81" fill="none" xmlns="http://www.w3.org/2000/svg">
<g clip-path="url(#clip0_6511_667)">
<g clip-path="url(#clip1_6511_667)">
<g clip-path="url(#clip2_6511_667)">
<path d="M10.4375 31.8765L9.4375 26.3765V21.3765C9.60417 20.2098 10.0375 17.8765 10.4375 17.8765C10.8375 17.8765 13.4375 16.8765 15.4375 16.3765L19.4375 15.8765C20.4375 15.8765 20.9375 15.8765 25.9375 14.8765C26.3297 14.7981 28.9375 14.3765 29.9375 14.3765L28.4375 12.3765L30.4375 14.3765L32.4375 16.3765L32.9375 17.8765C32.2708 18.0432 30.7375 18.3765 29.9375 18.3765H25.9375L23.9375 19.3765V20.8765C23.9375 21.2765 23.6042 24.7098 23.4375 26.3765L22.9375 31.3765L20.9375 31.8765H11.4375H10.4375Z" fill="#FDC040"/>
<path d="M47.4375 18.3766L49.4375 15.8766L55.9375 11.3766L63.4375 8.37656C65.7708 7.7099 71.0375 6.67656 73.4375 7.87656C76.4375 9.37656 76.9375 9.87656 79.4375 14.3766C79.2708 17.8766 78.6375 25.1766 77.4375 26.3766L74.9375 30.8766L73.4375 31.8766H65.9375H54.9375H51.4375V28.3766C51.4375 27.8766 50.9375 24.3766 50.9375 23.8766V20.8766L50.4375 18.8766L49.4375 18.3766H47.4375Z" fill="#FDC040"/>
<path d="M57.8737 14.8291C57.178 15.5248 56.7949 16.4497 56.7949 17.4335C56.7949 18.4172 57.178 19.3421 57.8735 20.0378L66.3874 28.5517C67.0831 29.2473 68.0079 29.6303 68.9916 29.6303C69.9754 29.6303 70.9002 29.2472 71.5957 28.5517C72.2914 27.856 72.6745 26.9311 72.6745 25.9474C72.6745 24.9636 72.2914 24.0387 71.5959 23.343L63.082 14.829C61.6461 13.3931 59.3093 13.3935 57.8737 14.8291ZM69.9386 25.0005C70.1915 25.2533 70.3308 25.5897 70.3308 25.9474C70.3308 26.305 70.1915 26.6413 69.9385 26.8943C69.6857 27.1472 69.3492 27.2865 68.9916 27.2865C68.6339 27.2865 68.2976 27.1472 68.0447 26.8943L59.5307 18.3802C59.2779 18.1274 59.1385 17.791 59.1385 17.4333C59.1385 17.0756 59.2779 16.7394 59.5309 16.4864C59.7919 16.2253 60.1347 16.0948 60.4778 16.0948C60.8206 16.0948 61.1638 16.2253 61.4247 16.4864L69.9386 25.0005Z" fill="#3BB77E"/>
<path d="M80.1526 36.4039C79.6626 33.983 77.9148 32.0412 75.6791 31.217C81.2233 21.9674 81.992 13.3055 77.5566 8.8699C75.6109 6.92436 72.7929 5.92823 69.4014 5.99073C68.7543 6.00261 68.2393 6.53685 68.2512 7.1839C68.2629 7.82377 68.7853 8.33441 69.4225 8.33441C69.4298 8.33441 69.4372 8.33441 69.4445 8.33426C72.2192 8.28285 74.3935 9.02131 75.8993 10.5271C78.228 12.8558 78.2908 16.3939 77.9336 18.952C77.4283 22.5696 75.7916 26.6493 73.1956 30.7854C66.4365 30.6565 59.6482 30.5674 52.8489 30.5187C52.8047 26.5273 52.5578 22.4873 52.1089 18.4907C52.0475 17.9451 51.6156 17.5151 51.0696 17.4563C50.7201 17.4188 50.3701 17.3854 50.0204 17.3507C54.9676 13.1672 60.2567 10.2204 65.1253 8.96428C65.7521 8.80256 66.1289 8.16347 65.9672 7.53673C65.8056 6.90999 65.1661 6.53294 64.5397 6.69482C62.674 7.17625 60.7551 7.88627 58.8209 8.80146C59.1976 7.16343 59.3771 5.19977 58.658 3.73456C58.2249 2.85155 57.5077 2.2495 56.5842 1.9934C55.2159 1.61432 53.0903 1.81339 50.7288 4.91585C50.6146 5.06601 50.5041 5.21727 50.3979 5.36774C50.3851 5.32321 50.3721 5.27883 50.3587 5.2343C49.8946 3.69018 48.6814 1.09961 45.7673 1.09961C44.7552 1.09961 43.8728 1.50306 43.215 2.26622C42.3563 3.26266 41.9807 4.81038 41.8459 6.35293C40.8203 5.00413 39.578 3.92003 38.2342 3.92003C37.3612 3.92003 36.565 4.36474 35.9927 5.17227C34.4848 7.29953 34.4629 11.9097 35.8636 16.7399C35.5128 16.7443 35.1622 16.7522 34.8115 16.7596C32.5155 14.0804 29.7401 12.2366 28.5261 11.4988V8.9299C29.0763 8.83349 29.4946 8.35457 29.4946 7.77674V4.46802C29.4946 2.68483 28.0439 1.23415 26.2607 1.23415H18.9733C17.1901 1.23415 15.7394 2.68483 15.7394 4.46802V7.77674C15.7394 8.35457 16.158 8.83349 16.7082 8.9299L16.7073 11.4983C15.125 12.4593 10.8983 15.2917 8.53274 19.4045C8.05022 20.2399 7.82678 21.2027 7.88725 22.191C8.00069 23.9922 8.28242 27.4939 8.89479 30.7638C8.41493 30.7726 7.93459 30.7806 7.45505 30.7898C4.19992 30.8512 1.36826 33.2124 0.722296 36.4034C0.342594 38.273 0.342594 40.169 0.722139 42.0377C1.19622 44.3831 2.85769 46.3188 5.05214 47.1734C5.1809 49.5589 5.40138 52.9515 5.76233 56.8073C4.79495 59.5472 3.84741 62.2881 2.92832 65.0234C2.1375 67.3796 3.19629 69.9945 5.39262 71.1067C6.22828 71.5285 7.10691 71.8558 8.00616 72.0833C8.84666 74.4667 10.3467 76.5229 12.3793 78.0597C14.6237 79.7566 17.2982 80.6535 20.1136 80.6535H60.7616C63.577 80.6535 66.2514 79.7566 68.4959 78.0597C70.5286 76.5227 72.0287 74.4664 72.8692 72.0827C73.7727 71.8532 74.6511 71.5255 75.483 71.105C77.6798 69.9948 78.7389 67.3796 77.9467 65.0218C77.0268 62.2849 76.0796 59.5441 75.113 56.8062C75.4738 52.9506 75.6943 49.5581 75.8231 47.1727C78.02 46.3161 79.6794 44.3815 80.1527 42.0388C80.5323 40.1689 80.5323 38.2729 80.1526 36.4039ZM49.8808 19.69C50.2559 23.2886 50.4643 26.9168 50.5052 30.5049C41.8127 30.4545 33.106 30.4687 24.4222 30.549C24.4621 26.947 24.6707 23.3039 25.0471 19.6898C33.2912 18.8673 41.6363 18.8673 49.8808 19.69ZM37.9048 6.52763C37.9901 6.40731 38.1165 6.26387 38.2342 6.26387C39.0779 6.26387 40.8477 8.67114 42.1063 11.5303C42.3135 12.0369 42.8473 12.3347 43.3911 12.2405C43.9527 12.143 44.3627 11.6558 44.3627 11.0858C44.3627 11.0145 44.3559 10.9431 44.3428 10.8728C43.757 6.9128 44.4081 4.47193 44.9907 3.79612C45.2038 3.54877 45.4361 3.44329 45.7674 3.44329C48.4691 3.44329 48.5595 8.81881 48.5597 8.87162C48.5597 9.42555 48.9477 9.90338 49.4896 10.0178C50.0324 10.1323 50.5799 9.85118 50.8038 9.34445C51.6417 7.44921 54.0016 3.71034 55.9576 4.25223C56.2361 4.32942 56.4144 4.48349 56.5534 4.76725C57.052 5.78323 56.7852 8.03033 55.9122 10.3264C52.8128 12.1081 49.7216 14.3873 46.7903 17.0729C43.9698 16.8661 41.1411 16.7533 38.3117 16.7346C36.6788 11.6153 37.0613 7.71767 37.9048 6.52763ZM26.1823 10.9992H19.0514L19.0522 8.94865H26.1825L26.1823 10.9992ZM18.9733 3.57783H26.2607C26.7515 3.57783 27.1508 3.97706 27.1508 4.46786V6.60435H18.0833V4.46802C18.0833 3.97722 18.4825 3.57783 18.9733 3.57783ZM11.2055 30.3695C10.6113 27.2139 10.337 23.7986 10.2266 22.0459C10.1945 21.5205 10.3106 21.0125 10.5634 20.5749C12.7987 16.6885 17.1188 13.9757 18.1923 13.3429H27.0411C27.726 13.746 29.736 14.9975 31.6819 16.8625C29.0677 16.981 26.4579 17.1772 23.8588 17.4565C23.3127 17.5151 22.8806 17.9451 22.8194 18.4909C22.3686 22.506 22.1215 26.5642 22.0789 30.5727C18.4806 30.611 14.8866 30.6595 11.3002 30.7202C11.2617 30.6059 11.2283 30.4893 11.2055 30.3695ZM7.42598 47.6509C7.43583 47.6512 7.44551 47.6521 7.45536 47.6523L7.49286 47.6529C8.01835 47.6627 8.54384 47.6713 9.06948 47.6807C8.59978 48.9433 8.13335 50.2072 7.6724 51.473C7.56911 50.0453 7.48848 48.7573 7.42598 47.6509ZM60.7614 78.3095H20.1135C15.975 78.3095 12.2276 75.8255 10.5463 72.1197C12.0858 71.7358 13.4209 70.6277 14.0337 69.0648C14.7091 67.3433 15.3227 65.7573 15.9097 64.2165C16.1402 63.6116 15.8368 62.9346 15.2319 62.7041C14.627 62.4738 13.95 62.7771 13.7195 63.3819C13.1351 64.9157 12.5241 66.4945 11.8516 68.2091C11.366 69.4478 10.0422 70.1573 8.76931 69.8583C7.9696 69.6718 7.18879 69.3879 6.45001 69.0149C5.28575 68.4254 4.72698 67.0299 5.15012 65.7695C8.15476 56.8282 11.4322 47.8237 14.8913 39.0063C15.3777 37.7674 16.7024 37.0574 17.9718 37.3547C18.7794 37.5442 19.5603 37.8286 20.2943 38.2005C21.4588 38.7887 22.0171 40.1836 21.5931 41.4453C19.6267 47.2962 17.5335 53.2042 15.3713 59.0054C15.1452 59.6118 15.4536 60.2866 16.0601 60.5128C16.6666 60.739 17.3414 60.4304 17.5675 59.824C19.0409 55.8705 20.4813 51.8677 21.8729 47.867C28.035 47.9339 34.2356 47.9684 40.4374 47.9684C46.6397 47.9684 52.8409 47.934 59.0035 47.867C61.4775 54.9799 64.1032 62.0869 66.841 69.0637C67.454 70.6266 68.7892 71.7347 70.3289 72.1188C68.6479 75.825 64.9 78.3095 60.7614 78.3095ZM74.4257 69.0131C73.6888 69.3854 72.9076 69.6698 72.1039 69.8581C70.834 70.1558 69.5092 69.4462 69.023 68.2074C65.571 59.4102 62.2936 50.4057 59.2818 41.4439C58.8579 40.1826 59.4163 38.7876 60.5809 38.1991C61.3175 37.8268 62.0988 37.5424 62.9026 37.3541C63.0974 37.3085 63.2935 37.2864 63.4876 37.2864C64.5594 37.2864 65.5719 37.956 65.9835 39.0048C69.4355 47.802 72.7128 56.8065 75.7246 65.7684C76.1485 67.0297 75.5901 68.4246 74.4257 69.0131ZM71.8063 47.6807C72.331 47.6713 72.8559 47.6627 73.3806 47.6529L73.4225 47.6521C73.4314 47.652 73.4403 47.651 73.4492 47.6509C73.3866 48.7568 73.3059 50.0444 73.2028 51.4715C72.7418 50.2058 72.2756 48.9425 71.8063 47.6807ZM77.8553 41.5733C77.5009 43.3268 76.1496 44.7386 74.4055 45.1714C74.0767 45.2552 73.7292 45.3014 73.3758 45.3088L73.3369 45.3095C72.5359 45.3245 71.7351 45.3384 70.9341 45.352C70.0247 42.9393 69.102 40.5359 68.1653 38.1486C67.257 35.8331 64.7637 34.5105 62.3679 35.0721C61.383 35.3029 60.4259 35.6512 59.5235 36.1075C57.3267 37.2177 56.2676 39.8329 57.0599 42.1907C57.4339 43.3037 57.8121 44.4173 58.1941 45.5311C46.4012 45.6536 34.4725 45.6536 22.6795 45.5311C23.0617 44.417 23.4411 43.3034 23.8144 42.1922C24.6074 39.8337 23.5481 37.2183 21.352 36.109C20.4532 35.6537 19.4961 35.3051 18.5067 35.0728C16.1108 34.5116 13.6184 35.8345 12.7091 38.1501C11.7721 40.5384 10.8497 42.9413 9.94108 45.3522C9.13948 45.3386 8.33773 45.3245 7.53614 45.3097L7.50161 45.3091C7.14519 45.3016 6.79799 45.2553 6.46235 45.1698C4.7251 44.7387 3.37349 43.327 3.01894 41.5724C2.70221 40.0122 2.70221 38.4301 3.0191 36.8692C3.44912 34.7454 5.33325 33.1742 7.49942 33.1333C29.3554 32.7138 51.519 32.7138 73.3753 33.1333C75.5412 33.1742 77.4253 34.7454 77.8555 36.87C78.1725 38.4299 78.1725 40.012 77.8553 41.5733Z" fill="#3BB77E"/>
<path d="M24.9464 51.98H24.8673C22.1834 51.9864 20.0176 54.1048 19.9366 56.8027C19.8415 59.9802 19.8415 63.2025 19.9366 66.3799C20.0176 69.0777 22.1833 71.1961 24.8682 71.2026H24.9464C27.6302 71.1961 29.7961 69.0778 29.877 66.3799C29.9722 63.2025 29.9722 59.9802 29.877 56.8027C29.7959 54.1046 27.6302 51.9864 24.9464 51.98ZM27.5341 66.3096C27.4921 67.7119 26.3286 68.8553 24.9417 68.8586H24.8729C23.4849 68.8553 22.3214 67.7117 22.2794 66.3096C22.1855 63.1787 22.1855 60.0038 22.2794 56.8729C22.3214 55.4706 23.4849 54.3272 24.8737 54.3239H24.9398C26.3278 54.3272 27.4921 55.4706 27.5341 56.8729C27.628 60.0038 27.628 63.1787 27.5341 66.3096Z" fill="#3BB77E"/>
<path d="M40.4775 51.98H40.3985C37.7146 51.9864 35.5488 54.1048 35.4678 56.8027C35.3727 59.9802 35.3727 63.2025 35.4678 66.3799C35.5488 69.0777 37.7145 71.1961 40.3994 71.2026H40.4775C43.1615 71.1961 45.3272 69.0777 45.4082 66.3799C45.5033 63.2025 45.5033 59.9802 45.4082 56.8027C45.3272 54.1048 43.1615 51.9864 40.4775 51.98ZM43.0653 66.3096C43.0233 67.7119 41.8599 68.8553 40.473 68.8586H40.4043C39.0162 68.8553 37.8528 67.7117 37.8107 66.3096C37.7168 63.1787 37.7168 60.0038 37.8107 56.8729C37.8528 55.4706 39.0162 54.3272 40.405 54.3239H40.4711C41.8591 54.3272 43.0233 55.4706 43.0653 56.8729C43.1592 60.0038 43.1592 63.1787 43.0653 66.3096Z" fill="#3BB77E"/>
<path d="M56.0067 51.98H55.9278C53.2438 51.9864 51.0781 54.1048 50.9972 56.8027C50.902 59.9802 50.902 63.2025 50.9972 66.3799C51.0781 69.0777 53.2438 71.1962 55.9287 71.2026H56.0069C58.6909 71.1961 60.8566 69.0777 60.9375 66.3799C61.0327 63.2025 61.0327 59.9802 60.9375 56.8027C60.8566 54.1048 58.6909 51.9864 56.0067 51.98ZM58.5946 66.3096C58.5526 67.7119 57.3893 68.8553 56.0022 68.8586H55.9336C54.5456 68.8553 53.3822 67.7117 53.3402 66.3096C53.2461 63.1787 53.2461 60.0038 53.3402 56.8729C53.3822 55.4706 54.5456 54.3272 55.9344 54.3239H56.0005C57.3885 54.3272 58.5527 55.4706 58.5948 56.8729C58.6885 60.0038 58.6885 63.1787 58.5946 66.3096Z" fill="#3BB77E"/>
</g>
</g>
</g>
<defs>
<clipPath id="clip0_6511_667">
<rect x="0.4375" y="0.876465" width="80" height="80" rx="10" fill="white"/>
</clipPath>
<clipPath id="clip1_6511_667">
<rect width="80" height="80" fill="white" transform="translate(0.4375 0.876465)"/>
</clipPath>
<clipPath id="clip2_6511_667">
<rect width="80" height="80" fill="white" transform="translate(0.4375 0.876465)"/>
</clipPath>
</defs>
</svg>
