<svg width="16" height="18" viewBox="0 0 16 18" fill="none" xmlns="http://www.w3.org/2000/svg">
<g clip-path="url(#clip0_6511_9283)">
<g clip-path="url(#clip1_6511_9283)">
<g clip-path="url(#clip2_6511_9283)">
<mask id="mask0_6511_9283" style="mask-type:luminance" maskUnits="userSpaceOnUse" x="0" y="1" width="16" height="17">
<path d="M16 1.38086H0V17.3809H16V1.38086Z" fill="white"/>
</mask>
<g mask="url(#mask0_6511_9283)">
<path d="M8.00078 17.3863L7.53411 16.9863C6.89078 16.4477 1.27344 11.5963 1.27344 8.04764C1.27344 6.26344 1.98222 4.55232 3.24383 3.2907C4.50545 2.02908 6.21658 1.32031 8.00078 1.32031C9.78498 1.32031 11.4961 2.02908 12.7578 3.2907C14.0194 4.55232 14.7281 6.26344 14.7281 8.04764C14.7281 11.5963 9.11078 16.4477 8.47011 16.989L8.00078 17.3863ZM8.00078 2.77498C6.60287 2.77656 5.26267 3.33259 4.27419 4.32106C3.28572 5.30953 2.7297 6.64973 2.72811 8.04764C2.72811 10.277 6.18411 13.8383 8.00078 15.4683C9.81744 13.8377 13.2735 10.2743 13.2735 8.04764C13.2719 6.64973 12.7159 5.30953 11.7274 4.32106C10.7389 3.33259 9.39869 2.77656 8.00078 2.77498Z" fill="#3BB77E"/>
<path d="M8.0026 10.7142C7.47518 10.7142 6.95961 10.5578 6.52108 10.2648C6.08255 9.97176 5.74077 9.55528 5.53893 9.06801C5.3371 8.58074 5.28429 8.04457 5.38718 7.52728C5.49008 7.01 5.74404 6.53485 6.11698 6.16191C6.48992 5.78897 6.96509 5.53499 7.48237 5.4321C7.99965 5.3292 8.53583 5.38201 9.0231 5.58385C9.51037 5.78568 9.92685 6.12747 10.2199 6.566C10.5129 7.00453 10.6693 7.52011 10.6693 8.04752C10.6693 8.75477 10.3883 9.43305 9.88822 9.93314C9.38812 10.4332 8.70985 10.7142 8.0026 10.7142ZM8.0026 6.71419C7.73889 6.71419 7.48112 6.79239 7.26184 6.9389C7.04259 7.08541 6.87168 7.29365 6.77076 7.53728C6.66985 7.78091 6.64344 8.049 6.69489 8.30764C6.74633 8.56629 6.87332 8.80386 7.05979 8.99033C7.24626 9.1768 7.48384 9.30379 7.74249 9.35524C8.00113 9.40669 8.26921 9.38028 8.51285 9.27936C8.75648 9.17845 8.96472 9.00755 9.11123 8.78828C9.25774 8.56902 9.33595 8.31123 9.33595 8.04752C9.33595 7.6939 9.19546 7.35476 8.94541 7.10472C8.69536 6.85467 8.35622 6.71419 8.0026 6.71419Z" fill="#3BB77E"/>
</g>
</g>
</g>
</g>
<defs>
<clipPath id="clip0_6511_9283">
<rect width="16" height="17" fill="white" transform="translate(0 0.629883)"/>
</clipPath>
<clipPath id="clip1_6511_9283">
<rect width="16" height="17" fill="white" transform="translate(0 0.629883)"/>
</clipPath>
<clipPath id="clip2_6511_9283">
<rect width="16" height="17" fill="white" transform="translate(0 0.629883)"/>
</clipPath>
</defs>
</svg>
