<svg width="16" height="18" viewBox="0 0 16 18" fill="none" xmlns="http://www.w3.org/2000/svg">
<g clip-path="url(#clip0_6511_9304)">
<g clip-path="url(#clip1_6511_9304)">
<mask id="mask0_6511_9304" style="mask-type:luminance" maskUnits="userSpaceOnUse" x="0" y="1" width="16" height="17">
<path d="M16 1.26416H0V17.2642H16V1.26416Z" fill="white"/>
</mask>
<g mask="url(#mask0_6511_9304)">
<path d="M0.963115 5.71032C0.739887 5.7741 0.537181 5.89506 0.375056 6.06124C0.212931 6.22742 0.0970051 6.43305 0.0387506 6.65778C-0.019504 6.88252 -0.0180687 7.11857 0.0429143 7.34258C0.103898 7.56659 0.222315 7.77079 0.386449 7.93498L2.66112 10.207V14.5977H7.05645L9.34645 16.8843C9.46927 17.0084 9.61546 17.107 9.77657 17.1742C9.93768 17.2415 10.1106 17.2762 10.2852 17.2763C10.3999 17.2761 10.5141 17.2613 10.6252 17.2323C10.8498 17.1758 11.0556 17.061 11.2218 16.8996C11.3879 16.7382 11.5087 16.5359 11.5718 16.313L15.9945 1.27832L0.963115 5.71032ZM1.33378 6.99232L12.6858 3.64565L3.99578 12.3217V9.65498L1.33378 6.99232ZM10.2938 15.9417L7.60912 13.2643H4.94245L13.6312 4.58298L10.2938 15.9417Z" fill="#3BB77E"/>
</g>
</g>
</g>
<defs>
<clipPath id="clip0_6511_9304">
<rect width="16" height="17" fill="white" transform="translate(0 0.629883)"/>
</clipPath>
<clipPath id="clip1_6511_9304">
<rect width="16" height="17" fill="white" transform="translate(0 0.629883)"/>
</clipPath>
</defs>
</svg>
