<svg width="16" height="17" viewBox="0 0 16 17" fill="none" xmlns="http://www.w3.org/2000/svg">
<g clip-path="url(#clip0_6511_9312)">
<g clip-path="url(#clip1_6511_9312)">
<g clip-path="url(#clip2_6511_9312)">
<mask id="mask0_6511_9312" style="mask-type:luminance" maskUnits="userSpaceOnUse" x="0" y="1" width="16" height="16">
<path d="M15.7424 1.44824H0.683594V16.5071H15.7424V1.44824Z" fill="white"/>
</mask>
<g mask="url(#mask0_6511_9312)">
<path d="M6.9581 16.507H0.683594V15.2522H6.9581V16.507ZM5.7032 12.7423H0.683594V13.9973H5.7032V12.7423ZM4.4483 10.2326H0.683594V11.4875H4.4483V10.2326ZM8.21301 1.44824C6.21675 1.4504 4.30286 2.24437 2.8913 3.65594C1.47972 5.06751 0.685753 6.98139 0.683594 8.97765H1.9385C1.9385 7.73668 2.30649 6.52357 2.99595 5.49173C3.6854 4.45989 4.66534 3.65567 5.81185 3.18076C6.95837 2.70586 8.21996 2.58161 9.43714 2.82371C10.6543 3.06581 11.7723 3.6634 12.6498 4.5409C13.5273 5.41841 14.1249 6.53642 14.3669 7.75356C14.6091 8.97069 14.4848 10.2323 14.0099 11.3789C13.535 12.5253 12.7308 13.5052 11.699 14.1948C10.6671 14.8842 9.45399 15.2522 8.21301 15.2522V16.507C10.2099 16.507 12.125 15.7138 13.5371 14.3018C14.9491 12.8897 15.7425 10.9746 15.7425 8.97765C15.7425 6.98073 14.9491 5.0656 13.5371 3.65355C12.125 2.24151 10.2099 1.44824 8.21301 1.44824ZM7.58556 5.8404V9.23742L9.65173 11.3036L10.539 10.4164L8.84045 8.71789V5.8404H7.58556Z" fill="#3BB77E"/>
</g>
</g>
</g>
</g>
<defs>
<clipPath id="clip0_6511_9312">
<rect width="16" height="16" fill="white" transform="translate(0 0.629883)"/>
</clipPath>
<clipPath id="clip1_6511_9312">
<rect width="16" height="16" fill="white" transform="translate(0 0.629883)"/>
</clipPath>
<clipPath id="clip2_6511_9312">
<rect width="16" height="16" fill="white" transform="translate(0 0.629883)"/>
</clipPath>
</defs>
</svg>
