<svg width="17" height="17" viewBox="0 0 17 17" fill="none" xmlns="http://www.w3.org/2000/svg">
<path d="M11.6596 4.85202C11.2596 4.85202 10.937 5.1746 10.937 5.5746C10.937 5.9746 11.2596 6.29718 11.6596 6.29718C12.0596 6.29718 12.3822 5.9746 12.3822 5.5746C12.3822 5.1746 12.0596 4.85202 11.6596 4.85202ZM8.43378 5.78105C6.75636 5.78105 5.38862 7.1488 5.38862 8.82622C5.38862 10.5036 6.75636 11.8714 8.43378 11.8714C10.1112 11.8714 11.4789 10.5036 11.4789 8.82622C11.4789 7.1488 10.1112 5.78105 8.43378 5.78105ZM8.43378 10.7875C7.34991 10.7875 6.4854 9.91009 6.4854 8.83912C6.4854 7.75525 7.36281 6.89073 8.43378 6.89073C9.51765 6.89073 10.3822 7.76815 10.3822 8.83912C10.3822 9.91009 9.50475 10.7875 8.43378 10.7875ZM14.5886 6.29718C14.5886 4.24557 12.9241 2.58105 10.8725 2.58105H5.95636C3.90475 2.58105 2.24023 4.24557 2.24023 6.29718V11.2133C2.24023 13.2649 3.90475 14.9294 5.95636 14.9294H10.8596C12.9112 14.9294 14.5757 13.2649 14.5757 11.2133V6.29718H14.5886ZM13.4144 11.2004C13.4144 12.6069 12.266 13.7552 10.8596 13.7552H5.95636C4.54991 13.7552 3.40152 12.6069 3.40152 11.2004V6.29718C3.40152 4.87783 4.53701 3.74234 5.95636 3.74234H10.8596C12.266 3.74234 13.4144 4.89073 13.4144 6.29718V11.2004Z" fill="white"/>
</svg>
