<svg width="16" height="17" viewBox="0 0 16 17" fill="none" xmlns="http://www.w3.org/2000/svg">
<g clip-path="url(#clip0_6511_9295)">
<mask id="mask0_6511_9295" style="mask-type:luminance" maskUnits="userSpaceOnUse" x="0" y="1" width="16" height="16">
<path d="M15.3713 1.03931H0.3125V16.0981H15.3713V1.03931Z" fill="white"/>
</mask>
<g mask="url(#mask0_6511_9295)">
<path d="M13.4874 8.83499V7.94149C13.4874 6.44381 12.8925 5.00745 11.8334 3.94842C10.7744 2.8894 9.33804 2.29443 7.84035 2.29443C6.34265 2.29443 4.90631 2.8894 3.84728 3.94842C2.78824 5.00745 2.19329 6.44381 2.19329 7.94149V8.83499C1.53519 9.12477 0.996611 9.63182 0.667719 10.2712C0.338822 10.9107 0.239571 11.6438 0.386581 12.3476C0.53359 13.0515 0.917938 13.6835 1.47528 14.1379C2.03262 14.5922 2.72913 14.8413 3.44819 14.8435H4.7031V8.56895H3.44819V7.94149C3.44819 6.77663 3.91094 5.65946 4.73463 4.83577C5.55832 4.01208 6.67547 3.54934 7.84035 3.54934C9.00522 3.54934 10.1224 4.01208 10.9461 4.83577C11.7697 5.65946 12.2325 6.77663 12.2325 7.94149V8.56895H10.9776V13.5886H8.4678V14.8435H12.2325C12.9516 14.8413 13.648 14.5922 14.2054 14.1379C14.7628 13.6835 15.1471 13.0515 15.2942 12.3476C15.4412 11.6438 15.3419 10.9107 15.0129 10.2712C14.6841 9.63182 14.1455 9.12477 13.4874 8.83499ZM3.44819 13.5886C2.94896 13.5886 2.47017 13.3902 2.11717 13.0373C1.76416 12.6842 1.56583 12.2054 1.56583 11.7062C1.56583 11.207 1.76416 10.7282 2.11717 10.3751C2.47017 10.0222 2.94896 9.82384 3.44819 9.82384V13.5886ZM12.2325 13.5886V9.82384C12.7317 9.82384 13.2105 10.0222 13.5635 10.3751C13.9166 10.7282 14.1149 11.207 14.1149 11.7062C14.1149 12.2054 13.9166 12.6842 13.5635 13.0373C13.2105 13.3902 12.7317 13.5886 12.2325 13.5886Z" fill="#3BB77E"/>
</g>
</g>
<defs>
<clipPath id="clip0_6511_9295">
<rect width="16" height="16" fill="white" transform="translate(0 0.629883)"/>
</clipPath>
</defs>
</svg>
